<mxfile host="Electron" modified="2023-12-15T09:13:26.505Z" agent="Mozilla/5.0 (Windows NT 10.0; Win64; x64) AppleWebKit/537.36 (KHTML, like Gecko) draw.io/22.1.2 Chrome/114.0.5735.289 Electron/25.9.4 Safari/537.36" etag="qA69r2JzKO4FqBpbdT3f" version="22.1.2" type="device">
  <diagram id="rbGi9PtIToHVLDeqVjhZ" name="Page-3">
    <mxGraphModel dx="1253" dy="857" grid="1" gridSize="10" guides="1" tooltips="1" connect="1" arrows="1" fold="1" page="1" pageScale="1" pageWidth="1169" pageHeight="827" math="0" shadow="0">
      <root>
        <mxCell id="0" />
        <mxCell id="1" parent="0" />
        <mxCell id="MDsW5wDdO8fMI-XZWo-s-1" value="" style="rounded=0;whiteSpace=wrap;html=1;fontFamily=Helvetica;fontSize=11;fontColor=default;fillColor=none;strokeColor=none;" vertex="1" parent="1">
          <mxGeometry x="40" y="60" width="400" height="540" as="geometry" />
        </mxCell>
        <mxCell id="4ZxpZRtGzSbERd_bCq9J-8" style="rounded=0;orthogonalLoop=1;jettySize=auto;html=1;exitX=0.5;exitY=0.5;exitDx=0;exitDy=0;exitPerimeter=0;entryX=0;entryY=0.5;entryDx=0;entryDy=0;endArrow=none;endFill=0;" edge="1" parent="1" source="J8Oz0vQgFWda72MlGYYy-1" target="4ZxpZRtGzSbERd_bCq9J-2">
          <mxGeometry relative="1" as="geometry" />
        </mxCell>
        <mxCell id="4ZxpZRtGzSbERd_bCq9J-9" style="rounded=0;orthogonalLoop=1;jettySize=auto;html=1;exitX=0.5;exitY=0.5;exitDx=0;exitDy=0;exitPerimeter=0;entryX=0;entryY=0.5;entryDx=0;entryDy=0;endArrow=none;endFill=0;" edge="1" parent="1" source="J8Oz0vQgFWda72MlGYYy-1" target="4ZxpZRtGzSbERd_bCq9J-6">
          <mxGeometry relative="1" as="geometry" />
        </mxCell>
        <mxCell id="4ZxpZRtGzSbERd_bCq9J-10" style="edgeStyle=none;shape=connector;rounded=0;orthogonalLoop=1;jettySize=auto;html=1;exitX=0.5;exitY=0.5;exitDx=0;exitDy=0;exitPerimeter=0;entryX=0;entryY=0.5;entryDx=0;entryDy=0;labelBackgroundColor=default;strokeColor=default;align=center;verticalAlign=middle;fontFamily=Helvetica;fontSize=11;fontColor=default;endArrow=none;endFill=0;" edge="1" parent="1" source="J8Oz0vQgFWda72MlGYYy-1" target="4ZxpZRtGzSbERd_bCq9J-7">
          <mxGeometry relative="1" as="geometry" />
        </mxCell>
        <mxCell id="4ZxpZRtGzSbERd_bCq9J-11" style="edgeStyle=none;shape=connector;rounded=0;orthogonalLoop=1;jettySize=auto;html=1;exitX=0.5;exitY=0.5;exitDx=0;exitDy=0;exitPerimeter=0;entryX=0;entryY=0.5;entryDx=0;entryDy=0;labelBackgroundColor=default;strokeColor=default;align=center;verticalAlign=middle;fontFamily=Helvetica;fontSize=11;fontColor=default;endArrow=none;endFill=0;" edge="1" parent="1" source="J8Oz0vQgFWda72MlGYYy-1" target="4ZxpZRtGzSbERd_bCq9J-5">
          <mxGeometry relative="1" as="geometry" />
        </mxCell>
        <mxCell id="4ZxpZRtGzSbERd_bCq9J-17" style="edgeStyle=none;shape=connector;rounded=0;orthogonalLoop=1;jettySize=auto;html=1;exitX=0.5;exitY=0.5;exitDx=0;exitDy=0;exitPerimeter=0;entryX=0;entryY=0.5;entryDx=0;entryDy=0;labelBackgroundColor=default;strokeColor=default;align=center;verticalAlign=middle;fontFamily=Helvetica;fontSize=11;fontColor=default;endArrow=none;endFill=0;" edge="1" parent="1" source="J8Oz0vQgFWda72MlGYYy-1" target="4ZxpZRtGzSbERd_bCq9J-15">
          <mxGeometry relative="1" as="geometry" />
        </mxCell>
        <mxCell id="4ZxpZRtGzSbERd_bCq9J-19" style="edgeStyle=none;shape=connector;rounded=0;orthogonalLoop=1;jettySize=auto;html=1;exitX=0.5;exitY=0.5;exitDx=0;exitDy=0;exitPerimeter=0;entryX=0;entryY=0.5;entryDx=0;entryDy=0;labelBackgroundColor=default;strokeColor=default;align=center;verticalAlign=middle;fontFamily=Helvetica;fontSize=11;fontColor=default;endArrow=none;endFill=0;" edge="1" parent="1" source="J8Oz0vQgFWda72MlGYYy-1" target="4ZxpZRtGzSbERd_bCq9J-18">
          <mxGeometry relative="1" as="geometry" />
        </mxCell>
        <mxCell id="J8Oz0vQgFWda72MlGYYy-1" value="Nutzer" style="shape=umlActor;verticalLabelPosition=bottom;verticalAlign=top;html=1;outlineConnect=0;" vertex="1" parent="1">
          <mxGeometry x="80" y="300" width="30" height="60" as="geometry" />
        </mxCell>
        <mxCell id="J8Oz0vQgFWda72MlGYYy-3" value="" style="rounded=0;whiteSpace=wrap;html=1;fillColor=none;" vertex="1" parent="1">
          <mxGeometry x="180" y="100" width="220" height="460" as="geometry" />
        </mxCell>
        <mxCell id="J8Oz0vQgFWda72MlGYYy-4" value="Alphabot2" style="text;html=1;strokeColor=none;fillColor=none;align=center;verticalAlign=middle;whiteSpace=wrap;rounded=0;" vertex="1" parent="1">
          <mxGeometry x="250" y="110" width="80" height="20" as="geometry" />
        </mxCell>
        <mxCell id="4ZxpZRtGzSbERd_bCq9J-2" value="&lt;font style=&quot;font-size: 12px;&quot;&gt;System Starten&lt;/font&gt;" style="ellipse;whiteSpace=wrap;html=1;fillColor=#ffcc99;strokeColor=#36393d;" vertex="1" parent="1">
          <mxGeometry x="240" y="160" width="100" height="40" as="geometry" />
        </mxCell>
        <mxCell id="4ZxpZRtGzSbERd_bCq9J-5" value="&lt;font style=&quot;font-size: 12px;&quot;&gt;System Stopen&lt;/font&gt;" style="ellipse;whiteSpace=wrap;html=1;fillColor=#ffcc99;strokeColor=#36393d;" vertex="1" parent="1">
          <mxGeometry x="240" y="460" width="100" height="40" as="geometry" />
        </mxCell>
        <mxCell id="4ZxpZRtGzSbERd_bCq9J-6" value="&lt;font style=&quot;font-size: 12px;&quot;&gt;Person folgen Starten&lt;/font&gt;" style="ellipse;whiteSpace=wrap;html=1;fillColor=#ffcc99;strokeColor=#36393d;" vertex="1" parent="1">
          <mxGeometry x="240" y="280" width="100" height="40" as="geometry" />
        </mxCell>
        <mxCell id="4ZxpZRtGzSbERd_bCq9J-7" value="Person folgen Stoppen" style="ellipse;whiteSpace=wrap;html=1;fillColor=#ffcc99;strokeColor=#36393d;" vertex="1" parent="1">
          <mxGeometry x="240" y="340" width="100" height="40" as="geometry" />
        </mxCell>
        <mxCell id="4ZxpZRtGzSbERd_bCq9J-15" value="&lt;font style=&quot;font-size: 12px;&quot;&gt;Suchprotokol Starten&lt;/font&gt;" style="ellipse;whiteSpace=wrap;html=1;fillColor=#ffcc99;strokeColor=#36393d;" vertex="1" parent="1">
          <mxGeometry x="240" y="220" width="100" height="40" as="geometry" />
        </mxCell>
        <mxCell id="4ZxpZRtGzSbERd_bCq9J-18" value="&lt;font style=&quot;font-size: 12px;&quot;&gt;Suchprotokol Stopen&lt;/font&gt;" style="ellipse;whiteSpace=wrap;html=1;fillColor=#ffcc99;strokeColor=#36393d;" vertex="1" parent="1">
          <mxGeometry x="240" y="400" width="100" height="40" as="geometry" />
        </mxCell>
      </root>
    </mxGraphModel>
  </diagram>
</mxfile>
